<?xml version="1.0" encoding="UTF-8" standalone="no"?>
<!-- Created with Inkscape (http://www.inkscape.org/) -->

<svg
   version="1.1"
   id="svg1"
   width="5973"
   height="5690"
   viewBox="0 0 5973 5690"
   sodipodi:docname="balance.svg"
   inkscape:version="1.3.2 (091e20e, 2023-11-25, custom)"
   xmlns:inkscape="http://www.inkscape.org/namespaces/inkscape"
   xmlns:sodipodi="http://sodipodi.sourceforge.net/DTD/sodipodi-0.dtd"
   xmlns="http://www.w3.org/2000/svg"
   xmlns:svg="http://www.w3.org/2000/svg">
  <defs
     id="defs1" />
  <sodipodi:namedview
     id="namedview1"
     pagecolor="#ffffff"
     bordercolor="#000000"
     borderopacity="0.25"
     inkscape:showpageshadow="2"
     inkscape:pageopacity="0.0"
     inkscape:pagecheckerboard="0"
     inkscape:deskcolor="#d1d1d1"
     inkscape:zoom="0.14428822"
     inkscape:cx="2987.0767"
     inkscape:cy="1902.4421"
     inkscape:window-width="1920"
     inkscape:window-height="1017"
     inkscape:window-x="-8"
     inkscape:window-y="-8"
     inkscape:window-maximized="1"
     inkscape:current-layer="g1">
    <inkscape:page
       x="0"
       y="0"
       id="page1"
       width="5973"
       height="5690"
       margin="0"
       bleed="0" />
  </sodipodi:namedview>
  <g
     id="g1"
     inkscape:groupmode="layer"
     inkscape:label="">
    <g
       id="g23"
       transform="matrix(1.1657693,0,0,1.1657693,6.9305725,173.26431)">
      <path
         id="path1"
         d="m 3409.9999,2613.9999 h 1671 c 22,0 40,18 40,40 0,227 -93,433 -242,582 -149,149 -355,242 -582,242 h -104 c -227,0 -433,-93 -582,-242 -149,-149 -242,-355 -242,-582 0,-22 18,-40 40,-40 z"
         style="fill:#000000;fill-opacity:1;fill-rule:nonzero;stroke:none;stroke-width:1.33333" />
      <path
         id="path2"
         d="m 4245.9999,1161.9999 -611,1522 c -16,41 -63,61 -104,44 -41,-16 -61,-63 -44,-104 l 685,-1706.99997 c 16,-41 63,-60.9999 104,-44 20,8 36,24 44,44 l 685,1706.99997 c 16,41 -4,88 -44,104 -41,16 -88,-4 -104,-44 z"
         style="fill:#000000;fill-opacity:1;fill-rule:evenodd;stroke:none;stroke-width:1.33333" />
      <path
         id="path3"
         d="m 41,2613.9999 h 1671 c 22,0 40,18 40,40 0,227 -93,433 -242,582 -149,149 -355,242 -582,242 H 824 c -227,0 -433,-93 -582,-242 -149,-149 -242,-355 -242,-582 0,-22 18,-40 40,-40 z"
         style="fill:#000000;fill-opacity:1;fill-rule:nonzero;stroke:none;stroke-width:1.33333" />
      <path
         id="path4"
         d="m 877,1161.9999 -611,1522 c -16,41 -63,61 -104,44 -41,-16 -61,-63 -44,-104 L 803,916.99993 c 16,-41 63,-60.9999 104,-44 20,8 36,24 44,44 l 685,1706.99997 c 16,41 -4,88 -44,104 -41,16 -88,-4 -104,-44 z"
         style="fill:#000000;fill-opacity:1;fill-rule:evenodd;stroke:none;stroke-width:1.33333" />
      <path
         id="path5"
         d="m 919,1014.9999 c -37,23 -87,12 -110,-25.99997 -23,-37 -12,-87 26,-110 918,-569.99994 2514.9999,-582.99994 3452.9999,0 37,23 49,73 26,110 -23,36.99997 -73,48.99997 -110,25.99997 -865,-536.99987 -2397.9999,-549.99987 -3283.9999,0 z"
         style="fill:#000000;fill-opacity:1;fill-rule:evenodd;stroke:none;stroke-width:1.33333" />
      <path
         id="path6"
         d="M 2795.9999,695.00003 V 3795.9999 h -469 V 695.00003 c 156,-9 313,-9 469,0 z"
         style="fill:#000000;fill-opacity:1;fill-rule:nonzero;stroke:none;stroke-width:1.33333" />
      <path
         id="path7"
         d="m 1805,3874.9999 h 1513.9999 c 127,0 243,72 327,188 84,116 136,276 136,451 0,22 -13,40 -29,40 H 1373 c -16,0 -29,-18 -29,-40 0,-176 52,-336 136,-451 84,-116 199,-188 327,-188 z"
         style="fill:#000000;fill-opacity:1;fill-rule:nonzero;stroke:none;stroke-width:1.33333" />
      <path
         id="path8"
         d="m 2795.9999,373.99999 h -470 V 235 c 0,-129 106,-235 235,-235 129,0 235,106 235,235 z"
         style="fill:#000000;fill-opacity:1;fill-rule:evenodd;stroke:none;stroke-width:1.33333" />
      <path
         id="path9"
         d="M 574.224,3423.5306 C 294.4947,3319.3959 93.4267,3095.3852 34.9533,2822.7292 0.984,2664.3386 11.052,2624.8332 85.5267,2624.2546 c 37.0146,-0.2854 133.3586,-210.9267 396.02,-865.8533 l 347.1039,-865.47997 183.948,-91.552 c 888.516,-442.19734 2143.5987,-452.63467 3041.584,-25.2907 l 245.8906,117.0147 345.7707,865.77057 c 273.828,685.6413 356.588,865.772 397.76,865.772 40.8386,0 51.9266,23.26 51.7026,108.4787 -0.6706,257.6093 -263.6706,590.1506 -541.6399,684.8693 -170.5214,58.1 -451.5827,58.3707 -621.136,0.6 -269.6294,-91.8707 -501.744,-371.7507 -533.9734,-643.844 -15.8853,-134.1613 -12.312,-145.8387 47.432,-154.8333 55.5627,-8.3707 110.5787,-124.6147 392.6254,-829.5893 l 328,-819.85337 -210.0214,-97.0373 c -791.4159,-365.6613 -2016.1719,-365.5573 -2788.2599,0.2347 l -210.0107,99.4946 49.432,124.23997 c 577.8854,1452.416 604.496,1512.688 672.2347,1522.4893 61.828,8.948 65.756,19.828 49.6253,137.5 -35,255.344 -190.8493,475.448 -428.068,604.5627 -126.1453,68.656 -195.7133,85.4533 -385.6866,93.12 -150.2814,6.068 -270.412,-5.0213 -341.636,-31.5373 z m 867.4533,-892.9107 c -21.2813,-51.708 -154.1093,-383.7866 -295.172,-737.948 -141.0627,-354.156 -265.9373,-634.036 -277.5,-621.948 -23.828,24.916 -575.4586,1397.2493 -575.4586,1431.62 0,12.26 267.0373,22.292 593.4119,22.292 h 593.4107 z m 3393.5626,79.6147 c 0,-27.984 -558.396,-1417.8747 -579.032,-1441.2507 -16.416,-18.604 -243.948,520.6667 -598.9267,1419.4893 -11.1453,28.224 116.6147,36.1627 581.8387,36.1627 327.864,0 596.12,-6.48 596.12,-14.4013 z"
         style="fill:#f5b12e;fill-opacity:1;fill-rule:evenodd;stroke:none;stroke-width:1.33333" />
      <path
         id="path10"
         d="m 1363.88,4452.2505 c 0,-152.6666 87.792,-346.464 204.8546,-452.224 l 113.52,-102.5626 h 1774.36 l 118.776,123.9626 c 117.448,122.5787 189.5106,288.4694 189.5106,436.2614 v 76.192 H 1363.88 Z"
         style="fill:#f5b12e;fill-opacity:1;fill-rule:evenodd;stroke:none;stroke-width:1.33333" />
      <path
         id="path11"
         d="M 2347.4319,2248.5732 V 715.39063 h 433.9227 V 3781.7545 h -433.9227 z"
         style="fill:#f5b12e;fill-opacity:1;fill-rule:evenodd;stroke:none;stroke-width:1.33333" />
      <path
         id="path12"
         d="m 2347.4319,257.584 c 0,-137.64667 93.5894,-236.464 223.9587,-236.464 114.2707,0 209.964,113.83866 209.964,249.78666 v 97.348 h -433.9227 z"
         style="fill:#f5b12e;fill-opacity:1;fill-rule:evenodd;stroke:none;stroke-width:1.33333" />
    </g>
  </g>
</svg>
