<?xml version="1.0" encoding="UTF-8" standalone="no"?>
<!-- Created with Inkscape (http://www.inkscape.org/) -->

<svg
   version="1.1"
   id="svg1"
   width="200"
   height="200"
   viewBox="0 0 200 200"
   sodipodi:docname="diagnosis.svg"
   inkscape:version="1.3.2 (091e20e, 2023-11-25, custom)"
   xmlns:inkscape="http://www.inkscape.org/namespaces/inkscape"
   xmlns:sodipodi="http://sodipodi.sourceforge.net/DTD/sodipodi-0.dtd"
   xmlns="http://www.w3.org/2000/svg"
   xmlns:svg="http://www.w3.org/2000/svg">
  <defs
     id="defs1" />
  <sodipodi:namedview
     id="namedview1"
     pagecolor="#ffffff"
     bordercolor="#000000"
     borderopacity="0.25"
     inkscape:showpageshadow="2"
     inkscape:pageopacity="0.0"
     inkscape:pagecheckerboard="0"
     inkscape:deskcolor="#d1d1d1"
     inkscape:zoom="4.105"
     inkscape:cx="100.1218"
     inkscape:cy="100"
     inkscape:window-width="1920"
     inkscape:window-height="1017"
     inkscape:window-x="-8"
     inkscape:window-y="-8"
     inkscape:window-maximized="1"
     inkscape:current-layer="g1">
    <inkscape:page
       x="0"
       y="0"
       id="page1"
       width="200"
       height="200"
       margin="0"
       bleed="0" />
  </sodipodi:namedview>
  <g
     id="g1"
     inkscape:groupmode="layer"
     inkscape:label="">
    <path
       id="path1"
       d="m 102.992,43.492 c -1.484,0 -2.793,0.738 -3.586,1.863 -1.316,0 -2.648,-0.003 -3.953,-0.027 -1.754,-0.031 -3.035,0.754 -3.82,2.344 -2.445,4.945 -4.961,9.965 -7.395,14.816 l -1.722,3.434 c -0.168,0.328 -0.289,0.512 -0.36,0.605 -0.015,0 -0.031,-0.004 -0.051,-0.004 -0.003,0 -0.007,0 -0.011,-0.003 -0.051,-0.079 -0.145,-0.254 -0.266,-0.622 -2.183,-6.605 -6.269,-18.746 -7.765,-23.156 -0.438,-1.293 -1.602,-2.191 -2.969,-2.285 -1.364,-0.094 -2.641,0.637 -3.254,1.859 l -0.238,0.473 c -0.93,1.856 -1.836,3.664 -2.743,5.473 -0.457,0.918 -0.914,1.836 -1.371,2.754 -0.75,1.5 -1.496,3.004 -2.25,4.5 -0.109,0.218 -0.195,0.343 -0.246,0.414 -0.027,0 -0.058,-0.004 -0.094,-0.008 -0.007,0 -0.015,-0.004 -0.023,-0.004 -0.035,-0.059 -0.094,-0.176 -0.164,-0.387 -0.941,-2.894 -2.828,-8.453 -3.578,-10.621 -0.36,-1.051 -1.258,-1.836 -2.344,-2.051 -1.09,-0.214 -2.219,0.164 -2.961,1 -0.414,0.473 -0.777,0.879 -1.113,1.137 -0.27,0.211 -0.578,0.317 -0.68,0.324 -1.242,0.086 -2.512,0.063 -3.855,0.039 -0.332,-0.007 -0.66,-0.011 -0.989,-0.015 -1.402,-0.016 -2.546,1.097 -2.566,2.496 -0.02,1.394 1.102,2.543 2.496,2.562 0.32,0.004 0.645,0.008 0.965,0.016 1.394,0.027 2.836,0.051 4.305,-0.051 0.968,-0.066 2.004,-0.429 2.914,-1.012 0.859,2.528 1.949,5.77 2.597,7.747 0.953,2.925 2.985,3.714 4.516,3.859 2.371,0.227 4.168,-0.84 5.34,-3.172 0.754,-1.5 1.504,-3.008 2.254,-4.516 0.457,-0.918 0.914,-1.832 1.371,-2.75 0.39,-0.777 0.781,-1.554 1.172,-2.339 1.883,5.586 4.754,14.14 6.465,19.304 0.816,2.469 2.347,3.84 4.554,4.071 0.223,0.023 0.434,0.035 0.641,0.035 3.113,0 4.383,-2.535 4.82,-3.403 l 1.723,-3.433 c 2.359,-4.703 4.793,-9.555 7.168,-14.36 1.168,0.02 2.336,0.024 3.492,0.024 0.797,1.113 2.098,1.844 3.57,1.844 2.422,0 4.387,-1.965 4.387,-4.387 0,-2.418 -1.961,-4.387 -4.383,-4.387 z"
       style="fill:#2e2963;fill-opacity:1;fill-rule:nonzero;stroke:none"
       transform="scale(1.3333333)" />
    <path
       id="path2"
       d="m 134.285,111.73 c 0.028,-24.148 0.039,-48.296 0,-72.441 -0.019,-12.922 -9.437,-22.316 -22.394,-22.332 l -4.153,-0.004 v 7.949 l 0.102,1.18 1.18,-0.023 c 2.492,-0.047 5.011,-0.153 7.578,0.726 5.297,1.813 8.461,6.465 8.465,12.445 l 0.003,43.379 -0.007,21.688 c 0,2.289 -0.012,4.582 -0.028,6.871 -0.035,5.164 -0.07,10.504 0.074,15.762 0.094,3.457 -1.179,6.715 -3.574,9.175 -2.504,2.571 -5.929,3.989 -9.73,3.989 -10.821,-0.063 -21.641,-0.082 -32.457,-0.082 l -41.274,0.035 c -7.804,0 -13.257,-5.438 -13.261,-13.219 -0.016,-28.582 -0.016,-57.16 0.031,-85.738 0.004,-2.129 0.058,-4.367 0.683,-6.27 1.661,-5.058 5.125,-7.922 10.301,-8.515 1.442,-0.168 3.301,-0.168 5.246,-0.106 l 1.192,0.035 v -9.285 l -5.086,0.028 c -1.602,0.011 -3.129,0.183 -4.535,0.511 -10.137,2.356 -16.946,10.95 -16.946,21.387 l -0.004,54.289 c -0.003,11.445 -0.007,22.895 0.043,34.34 0.008,1.914 0.305,3.973 0.879,6.113 2.004,7.5 9.407,15.567 20.918,15.567 h 0.395 c 5.668,-0.102 11.336,-0.079 17.004,-0.051 2.468,0.008 4.937,0.019 7.406,0.019 l 4.527,-0.004 22.172,0.016 c 8.281,0 16.563,-0.016 24.84,-0.098 10.223,-0.093 19.441,-8.8 20.133,-19.007 0.328,-4.829 0.305,-9.746 0.285,-14.496 z"
       style="fill:#f5b12e;fill-opacity:1;fill-rule:nonzero;stroke:none"
       transform="scale(1.3333333)" />
    <path
       id="path3"
       d="m 103.211,25.125 c -0.023,2.25 -0.977,3.227 -3.227,3.227 H 50.395 c -2.762,0 -3.598,-0.86 -3.598,-3.692 -0.024,-2.203 -0.024,-5.379 0,-7.582 0.023,-1.949 1.019,-2.902 2.969,-2.996 2.089,-0.07 4.222,0.047 6.265,-0.344 3.547,-0.722 6.332,-2.761 8.164,-5.961 0.625,-1.089 1.207,-2.203 1.856,-3.293 1.418,-2.39 3.527,-3.597 6.285,-3.644 1.602,-0.047 3.203,0.023 4.805,-0.024 3.246,-0.07 5.519,1.418 7.144,4.176 1.227,2.067 2.481,4.223 4.149,5.891 2.597,2.574 5.961,3.363 9.601,3.246 4.871,-0.137 5.176,0.258 5.176,5.059 0,1.667 0.023,4.289 0,5.937 z"
       style="fill:#f5b12e;fill-opacity:1;fill-rule:nonzero;stroke:none"
       transform="scale(1.3333333)" />
    <path
       id="path4"
       d="m 100.867,85.758 v 0.004 c -11.101,0 -24.41,0 -32,0 0,2.363 0,4.633 0,7.027 7.535,0 20.86,0 32,0 v 0.004 c 7.184,0 7.926,0 15.242,0 0,-2.383 0,-4.656 0,-7.039 -7.214,0.004 -7.964,0.004 -15.242,0.004 z"
       style="fill:#f5b12e;fill-opacity:1;fill-rule:nonzero;stroke:none"
       transform="scale(1.3333333)" />
    <path
       id="path5"
       d="m 116.109,115.133 c -9.828,0 -11.785,0 -19.8,0 0,-0.004 0,-0.004 0,-0.004 -7.278,0 -20.227,0 -27.446,0 0,2.383 0,4.656 0,7.035 7.317,0 20.262,0 27.446,0 v -0.004 c 8.113,0 10.054,0 19.8,0 0,-2.394 0,-4.664 0,-7.027 z"
       style="fill:#f5b12e;fill-opacity:1;fill-rule:nonzero;stroke:none"
       transform="scale(1.3333333)" />
    <path
       id="path6"
       d="m 37.402,88.355 c 0.016,0.278 0.071,0.571 0.145,0.727 l 0.859,1.629 c 0.176,0.297 0.344,0.617 0.508,0.926 0.164,0.316 0.34,0.64 0.508,0.945 l 1.285,2.359 c 0.176,0.301 0.348,0.602 0.535,0.957 l 0.801,1.469 c 0.266,0.481 0.797,1.039 1.297,1.356 0.387,0.25 0.867,0.379 1.387,0.379 0.972,0 1.984,-0.446 2.632,-1.164 0.364,-0.407 0.727,-0.833 1.086,-1.262 l 0.746,-0.875 c 1.079,-1.293 2.176,-2.586 3.278,-3.887 l 4.015,-4.754 c 0.895,-1.07 1.789,-2.14 2.723,-3.219 l 1.148,-1.398 c 0.833,-0.883 0.598,-1.867 0.239,-2.313 -0.625,-0.792 -1.68,-1.007 -2.387,-0.492 -0.773,0.582 -1.48,1.254 -2.102,1.844 -1.128,1.047 -2.273,2.074 -3.421,3.102 l -1.336,1.23 c -0.809,0.738 -1.618,1.484 -2.438,2.223 l -3.906,3.562 -4.516,-4.746 c -0.375,-0.301 -0.773,-0.445 -1.261,-0.445 l -0.149,0.004 c -0.355,0.058 -0.742,0.23 -1.066,0.484 -0.387,0.324 -0.61,0.82 -0.61,1.359 z"
       style="fill:#f5b12e;fill-opacity:1;fill-rule:nonzero;stroke:none"
       transform="scale(1.3333333)" />
    <path
       id="path7"
       d="m 49.16,106.941 c -6.449,0 -11.707,5.258 -11.707,11.707 0,6.469 5.258,11.707 11.707,11.707 6.469,0 11.707,-5.238 11.707,-11.707 0,-6.449 -5.238,-11.707 -11.707,-11.707 z m 0,19.45 c -4.277,0 -7.742,-3.465 -7.742,-7.743 0,-4.277 3.465,-7.742 7.742,-7.742 4.278,0 7.742,3.465 7.742,7.742 0,4.278 -3.464,7.743 -7.742,7.743 z"
       style="fill:#f5b12e;fill-opacity:1;fill-rule:nonzero;stroke:none"
       transform="scale(1.3333333)" />
  </g>
</svg>
