<?xml version="1.0" encoding="UTF-8" standalone="no"?>
<!-- Created with Inkscape (http://www.inkscape.org/) -->

<svg
   version="1.1"
   id="svg1"
   width="200"
   height="200"
   viewBox="0 0 200 200"
   sodipodi:docname="idea.svg"
   inkscape:version="1.3.2 (091e20e, 2023-11-25, custom)"
   xmlns:inkscape="http://www.inkscape.org/namespaces/inkscape"
   xmlns:sodipodi="http://sodipodi.sourceforge.net/DTD/sodipodi-0.dtd"
   xmlns="http://www.w3.org/2000/svg"
   xmlns:svg="http://www.w3.org/2000/svg">
  <defs
     id="defs1" />
  <sodipodi:namedview
     id="namedview1"
     pagecolor="#ffffff"
     bordercolor="#000000"
     borderopacity="0.25"
     inkscape:showpageshadow="2"
     inkscape:pageopacity="0.0"
     inkscape:pagecheckerboard="0"
     inkscape:deskcolor="#d1d1d1"
     inkscape:zoom="4.105"
     inkscape:cx="100.1218"
     inkscape:cy="100"
     inkscape:window-width="1920"
     inkscape:window-height="1017"
     inkscape:window-x="-8"
     inkscape:window-y="-8"
     inkscape:window-maximized="1"
     inkscape:current-layer="g1">
    <inkscape:page
       x="0"
       y="0"
       id="page1"
       width="200"
       height="200"
       margin="0"
       bleed="0" />
  </sodipodi:namedview>
  <g
     id="g1"
     inkscape:groupmode="layer"
     inkscape:label="">
    <path
       id="path1"
       d="m 123.828,73.977 c 1.942,-4.438 0.016,-5.649 -1.265,-12.579 -0.59,-3.207 -1.676,-6.648 -3.458,-9.925 L 41.371,71.855 c -0.23,2.993 -0.16,5.879 0.266,8.516 1.48,9.391 7.039,20.899 10.656,25.801 3.617,4.898 5.379,8.496 5.539,11.723 0.484,9.3 -1.531,18.332 -7.285,32.085 0,0 47.926,0 52.168,0.02 -1.035,-2.066 -1.656,-3.277 -2.031,-6.609 -0.5,-4.258 0.214,-9.196 1.281,-12.473 0.73,-2.211 3.387,-3.742 5.953,-3.777 4.203,-0.071 7.98,1.246 14.52,0.035 3.386,-0.621 3.207,-5.649 2.351,-9.176 -0.836,-3.508 1.941,-4.258 1.906,-5.699 -0.015,-0.805 0.321,-1.41 -1.691,-2.621 3.687,-1.996 2.406,-3.848 1.746,-5.328 -2.406,-5.254 0.285,-5.239 1.352,-5.645 1.07,-0.43 3.957,-0.965 4.257,-3.297 0.325,-2.351 -3.222,-6.754 -6.004,-10.476 -2.777,-3.743 -4.097,-7.325 -2.527,-10.957 z"
       style="fill:#000000;fill-opacity:1;fill-rule:nonzero;stroke:none"
       transform="scale(1.3333333)" />
    <path
       id="path2"
       d="m 30.449,6.289 c -6.254,5.809 -9.711,14.254 -12.043,25.246 -2.211,10.387 0.301,21.664 6.27,29.258 3.707,4.719 10.211,8.816 16.711,11.062 L 41.316,0.445 c -3.722,0.926 -7.5,2.727 -10.867,5.844 z"
       style="fill:#000000;fill-opacity:1;fill-rule:nonzero;stroke:none"
       transform="scale(1.3333333)" />
    <path
       id="path3"
       d="M 39.523,71.059 C 36.316,69.738 34.379,68.711 31.602,66.859 25.758,62.957 21.922,57.891 19.648,51.066 18.211,46.75 17.582,42.359 17.75,37.836 17.906,33.563 18.957,28.457 20.891,22.586 24.816,10.66 31.223,3.504 40.406,0.785 l 0.887,-0.262 v 35.555 c 0,28.332 -0.043,35.551 -0.211,35.543 -0.117,-0.004 -0.816,-0.258 -1.559,-0.562 z"
       style="fill:#00ffff;fill-opacity:1;fill-rule:nonzero;stroke:none"
       transform="scale(1.3333333)" />
    <path
       id="path4"
       d="m 68.535,149.875 c -14.156,-0.035 -17.824,-0.09 -17.754,-0.254 3.891,-9.488 5.891,-16.191 6.774,-22.711 0.375,-2.762 0.519,-8.023 0.269,-9.734 -0.461,-3.149 -1.648,-5.586 -5.238,-10.742 -3.406,-4.899 -6.344,-10.797 -8.481,-17.036 -1.562,-4.554 -2.316,-7.796 -2.656,-11.425 -0.211,-2.231 -0.14,-5.762 0.117,-6 0.082,-0.075 17.438,-4.668 38.575,-10.207 21.132,-5.539 38.547,-10.106 38.691,-10.145 0.195,-0.051 0.449,0.324 0.957,1.414 1.285,2.774 2.137,5.461 2.824,8.953 0.153,0.766 0.653,2.778 1.106,4.461 1.07,3.953 1.082,4.516 0.121,7.27 -0.629,1.797 -0.711,2.211 -0.707,3.472 0.015,2.661 0.984,4.825 3.965,8.848 3.984,5.387 5.121,7.391 5.121,9.031 0,1.657 -1.039,2.539 -4.25,3.598 -1.02,0.336 -1.504,0.598 -1.832,0.988 -0.672,0.797 -0.524,2.149 0.496,4.621 0.836,2.02 0.933,2.641 0.527,3.426 -0.269,0.516 -1.82,1.848 -2.16,1.848 -0.105,0 0.207,0.347 0.691,0.769 0.829,0.727 0.883,0.821 0.883,1.563 -0.004,0.805 -0.101,1.012 -1.254,2.601 -0.781,1.082 -0.902,1.977 -0.519,3.911 0.832,4.242 0.347,7.168 -1.371,8.296 -1.231,0.805 -6.067,1.086 -11.098,0.641 -4.281,-0.375 -5.769,-0.297 -7.219,0.383 -1.195,0.558 -2.277,1.453 -2.816,2.324 -0.5,0.809 -1.313,4.18 -1.602,6.645 -0.574,4.906 -0.047,9.359 1.457,12.339 l 0.493,0.977 -8.133,-0.043 c -4.477,-0.019 -16.164,-0.059 -25.977,-0.082 z"
       style="fill:#f5b12e;fill-opacity:1;fill-rule:nonzero;stroke:none"
       transform="scale(1.3333333)" />
    <path
       id="path5"
       d="M 38.594,70.566 C 27.91,65.918 21.75,59.004 19.043,48.625 18.156,45.238 17.879,43.027 17.875,39.355 17.871,34.824 18.418,31.328 19.984,25.871 23.934,12.109 29.887,4.547 39.41,1.199 40.227,0.91 40.969,0.676 41.055,0.676 c 0.175,0 0.218,65.859 0.043,68.89 -0.071,1.204 -0.176,1.891 -0.293,1.887 -0.102,-0.004 -1.098,-0.406 -2.211,-0.887 z"
       style="fill:#f5b12e;fill-opacity:1;fill-rule:nonzero;stroke:none"
       transform="scale(1.3333333)" />
    <path
       id="path6"
       d="M 38.418,70.379 C 27.734,65.613 21.773,58.824 19.063,48.34 18.355,45.609 18.109,43.867 18.004,40.871 17.828,35.883 18.383,31.781 19.98,26.219 23.645,13.453 28.73,6.223 36.703,2.453 c 2.067,-0.976 4.106,-1.73 4.262,-1.57 0.144,0.144 0.133,68.652 -0.012,69.609 -0.066,0.442 -0.207,0.801 -0.312,0.797 -0.106,0 -1.106,-0.41 -2.223,-0.91 z"
       style="fill:#f5b12e;fill-opacity:1;fill-rule:nonzero;stroke:none"
       transform="scale(1.3333333)" />
    <path
       id="path7"
       d="m 76.938,149.824 c -13.579,-0.062 -25.016,-0.121 -25.415,-0.136 -0.628,-0.024 -0.699,-0.063 -0.566,-0.321 0.086,-0.16 0.762,-1.887 1.504,-3.832 3.457,-9.066 5.004,-15.344 5.445,-22.094 0.231,-3.531 0.117,-6.078 -0.351,-7.929 -0.5,-1.969 -1.895,-4.606 -4.586,-8.664 -3.781,-5.7 -6.043,-10.071 -8.192,-15.836 C 42.188,84.063 40.906,76.973 41.48,72.781 l 0.102,-0.75 2.973,-0.801 c 10.687,-2.878 74.039,-19.488 74.324,-19.488 0.555,0 2.543,5.301 3.387,9.024 0.297,1.293 0.89,3.718 1.32,5.386 1.035,3.985 1.051,4.934 0.141,7.668 -0.618,1.864 -0.641,2.004 -0.563,3.707 0.121,2.766 0.809,4.297 3.746,8.348 3.903,5.379 5.153,7.57 5.188,9.09 0.039,1.621 -0.895,2.465 -3.926,3.558 -1.555,0.559 -1.965,0.825 -2.301,1.477 -0.383,0.742 -0.191,1.922 0.703,4.328 0.418,1.121 0.758,2.266 0.758,2.543 0,0.379 -0.219,0.738 -0.863,1.422 -0.473,0.5 -1.004,0.957 -1.18,1.012 -0.473,0.148 -0.394,0.343 0.441,1.148 1.129,1.078 1.075,1.719 -0.316,3.785 -0.941,1.403 -1.035,1.973 -0.668,4.157 0.391,2.332 0.391,5.261 0,6.293 -0.922,2.445 -2.473,2.875 -9.465,2.632 -2.226,-0.074 -5.183,-0.144 -6.574,-0.148 -2.492,-0.008 -2.543,0 -3.621,0.519 -1.344,0.645 -2.43,1.567 -2.879,2.442 -0.184,0.363 -0.519,1.359 -0.746,2.215 -1.563,5.91 -1.367,12.367 0.496,16.398 l 0.578,1.254 -0.453,-0.035 c -0.25,-0.016 -11.562,-0.082 -25.144,-0.141 z"
       style="fill:#f5b12e;fill-opacity:1;fill-rule:nonzero;stroke:none"
       transform="scale(1.3333333)" />
    <text
       id="text7"
       xml:space="preserve"
       transform="matrix(1.3333333,0,0,1.3333333,62.247212,59.999999)"><tspan
         style="font-variant:normal;font-weight:normal;font-size:30px;font-family:Caladea;writing-mode:lr-tb;fill:#f5b12e;fill-opacity:1;fill-rule:nonzero;stroke:none"
         x="0 17.040001 28.5 42.990002"
         y="0"
         sodipodi:role="line"
         id="tspan7">P(x)</tspan></text>
  </g>
</svg>
