<?xml version="1.0" encoding="UTF-8" standalone="no"?>
<!-- Created with Inkscape (http://www.inkscape.org/) -->

<svg
   version="1.1"
   id="svg1"
   width="200"
   height="200"
   viewBox="0 0 200 200"
   sodipodi:docname="twins.svg"
   inkscape:version="1.3.2 (091e20e, 2023-11-25, custom)"
   xmlns:inkscape="http://www.inkscape.org/namespaces/inkscape"
   xmlns:sodipodi="http://sodipodi.sourceforge.net/DTD/sodipodi-0.dtd"
   xmlns="http://www.w3.org/2000/svg"
   xmlns:svg="http://www.w3.org/2000/svg">
  <defs
     id="defs1" />
  <sodipodi:namedview
     id="namedview1"
     pagecolor="#ffffff"
     bordercolor="#000000"
     borderopacity="0.25"
     inkscape:showpageshadow="2"
     inkscape:pageopacity="0.0"
     inkscape:pagecheckerboard="0"
     inkscape:deskcolor="#d1d1d1"
     inkscape:zoom="4.105"
     inkscape:cx="100.1218"
     inkscape:cy="100"
     inkscape:window-width="1920"
     inkscape:window-height="1017"
     inkscape:window-x="-8"
     inkscape:window-y="-8"
     inkscape:window-maximized="1"
     inkscape:current-layer="g1">
    <inkscape:page
       x="0"
       y="0"
       id="page1"
       width="200"
       height="200"
       margin="0"
       bleed="0" />
  </sodipodi:namedview>
  <g
     id="g1"
     inkscape:groupmode="layer"
     inkscape:label="">
    <path
       id="path1"
       d="m 122.008,21.918 c 0,12.105 -9.813,21.918 -21.918,21.918 -12.106,0 -21.918,-9.813 -21.918,-21.918 C 78.172,9.813 87.984,0 100.09,0 c 12.105,0 21.918,9.813 21.918,21.918 z"
       style="fill:#000000;fill-opacity:1;fill-rule:nonzero;stroke:none"
       transform="scale(1.3333333)" />
    <path
       id="path2"
       d="m 51.168,48.094 c 0,0 -10.883,-0.778 -19.711,8.312 -11.16,11.496 -21.477,22.11 -21.477,22.11 0,0 -4.707,6.64 0,11.05 4.708,4.414 11.473,-1.828 11.473,-1.828 L 36.75,71.367 43.063,86.773 h 63.875 l 6.308,-15.437 15.301,16.406 c 0,0 6.766,6.145 11.473,1.727 4.707,-4.41 0,-11.18 0,-11.18 0,0 -10.317,-10.371 -21.473,-21.863 -8.832,-9.09 -19.719,-8.332 -19.719,-8.332 z"
       style="fill:#000000;fill-opacity:1;fill-rule:nonzero;stroke:none"
       transform="scale(1.3333333)" />
    <path
       id="path3"
       d="m 107.52,95.324 -21.887,17.36 16.883,12.062 -6.946,12.945 c 0,0 -3.531,5.883 0,10 3.532,4.118 9.125,1.473 9.125,1.473 0,0 13.121,-18.832 18.711,-24.719 5.594,-5.879 0,-13.531 0,-13.531 z"
       style="fill:#000000;fill-opacity:1;fill-rule:nonzero;stroke:none"
       transform="scale(1.3333333)" />
    <path
       id="path4"
       d="m 42.48,95.324 -15.886,15.59 c 0,0 -5.59,7.652 0,13.531 5.59,5.887 18.715,24.719 18.715,24.719 0,0 5.589,2.645 9.121,-1.473 3.531,-4.117 0,-10 0,-10 l -6.946,-12.945 16.887,-12.062 z"
       style="fill:#000000;fill-opacity:1;fill-rule:nonzero;stroke:none"
       transform="scale(1.3333333)" />
    <path
       id="path5"
       d="m 71.828,21.918 c 0,12.105 -9.812,21.918 -21.918,21.918 -12.105,0 -21.918,-9.813 -21.918,-21.918 C 27.992,9.813 37.805,0 49.91,0 62.016,0 71.828,9.813 71.828,21.918 Z"
       style="fill:#000000;fill-opacity:1;fill-rule:nonzero;stroke:none"
       transform="scale(1.3333333)" />
    <path
       id="path6"
       d="M 41.719,41.82 C 37.504,40.203 32.461,35.375 30.242,30.828 28.949,28.18 28.688,26.691 28.68,21.93 28.672,16.855 28.883,15.789 30.531,12.527 36.055,1.602 48.746,-2.582 59.863,2.859 c 4.059,1.985 7.481,5.657 9.711,10.411 2.438,5.199 2.391,12.21 -0.109,17.558 -2.274,4.856 -6.985,9.356 -11.625,11.09 -4.676,1.75 -11.418,1.707 -16.121,-0.098 z"
       style="fill:#f5b12e;fill-opacity:1;fill-rule:nonzero;stroke:none"
       transform="scale(1.3333333)" />
    <path
       id="path7"
       d="M 92.098,41.914 C 87.645,40.16 83.051,35.887 80.762,31.367 79.086,28.063 78.879,27.008 78.879,21.93 c 0,-4.965 0.23,-6.196 1.758,-9.309 3.086,-6.277 9.176,-10.805 15.98,-11.871 9.61,-1.508 18.453,3.086 22.754,11.816 1.84,3.739 2.09,4.868 2.09,9.364 0,4.492 -0.25,5.621 -2.09,9.359 -2.277,4.625 -5.531,7.856 -10.254,10.176 -4.148,2.043 -12.422,2.258 -17.019,0.449 z"
       style="fill:#f5b12e;fill-opacity:1;fill-rule:nonzero;stroke:none"
       transform="scale(1.3333333)" />
    <path
       id="path8"
       d="M 11.379,90.129 C 10.609,89.758 9.504,88.449 8.922,87.219 7.043,83.262 8.238,81.117 18.152,70.617 30.078,57.992 35.168,53.191 38.34,51.574 c 6.027,-3.074 8.203,-3.269 36.723,-3.269 29.605,0 31.343,0.183 37.742,4 3.332,1.988 26.144,24.894 27.855,27.968 0.426,0.77 0.789,2.735 0.801,4.364 0.019,2.543 -0.254,3.195 -1.934,4.609 -1.074,0.902 -2.578,1.637 -3.336,1.629 -2.714,-0.027 -6.523,-2.414 -10.242,-6.41 -10.691,-11.496 -12.633,-13.344 -13.16,-12.52 -0.289,0.457 -1.746,3.903 -3.238,7.66 l -2.707,6.829 -63.633,0.007 -3.086,-7.648 C 38.426,74.59 36.84,71.23 36.598,71.328 c -0.246,0.098 -3.957,3.961 -8.25,8.586 -9.426,10.152 -12.844,12.207 -16.969,10.215 z"
       style="fill:#f5b12e;fill-opacity:1;fill-rule:nonzero;stroke:none"
       transform="scale(1.3333333)" />
    <path
       id="path9"
       d="m 45.797,148.879 c -0.367,-0.258 -1.352,-1.469 -2.188,-2.691 -2.82,-4.125 -12.914,-17.454 -15.746,-20.793 -3.351,-3.954 -4.035,-7.047 -2.468,-11.153 1.378,-3.613 16.324,-18.691 17.703,-17.863 0.504,0.301 5.39,4.09 10.859,8.418 l 9.945,7.871 -8.086,5.738 c -4.445,3.16 -8.214,5.852 -8.375,5.981 -0.16,0.133 1.629,3.949 3.973,8.476 4.961,9.582 5.313,11.735 2.406,14.645 -1.484,1.484 -2.41,1.855 -4.609,1.847 -1.512,-0.007 -3.051,-0.218 -3.414,-0.476 z"
       style="fill:#f5b12e;fill-opacity:1;fill-rule:nonzero;stroke:none"
       transform="scale(1.3333333)" />
    <path
       id="path10"
       d="m 96.027,147.328 c -2.617,-3.109 -2.039,-6.191 2.805,-15.062 3.262,-5.969 3.813,-7.391 3.125,-8.071 -0.457,-0.457 -4.187,-3.238 -8.285,-6.183 l -7.449,-5.36 21.023,-16.734 4.246,3.793 c 10.762,9.609 14.102,13.996 14.102,18.531 0,2.473 -0.762,3.934 -4.121,7.922 -1.473,1.75 -6.02,7.684 -10.102,13.191 l -7.426,10.008 h -3.105 c -2.707,0 -3.317,-0.258 -4.813,-2.035 z"
       style="fill:#f5b12e;fill-opacity:1;fill-rule:nonzero;stroke:none"
       transform="scale(1.3333333)" />
  </g>
</svg>
